<?xml version="1.0" standalone="no"?>
<!DOCTYPE svg PUBLIC "-//W3C//DTD SVG 20010904//EN"
 "http://www.w3.org/TR/2001/REC-SVG-20010904/DTD/svg10.dtd">
<svg version="1.0" xmlns="http://www.w3.org/2000/svg"
 width="1024.000000pt" height="300.000000pt" viewBox="0 0 1024.000000 300.000000"
 preserveAspectRatio="xMidYMid meet">

<g transform="translate(0.000000,300.000000) scale(0.100000,-0.100000)"
fill="#000000" stroke="none">
<path d="M663 2763 l-543 -3 0 -1261 0 -1260 628 3 c604 4 630 5 703 25 249
70 396 245 398 476 1 68 3 67 -117 32 -46 -13 -132 -30 -190 -36 -103 -12
-765 -19 -775 -9 -2 3 -7 345 -11 762 l-6 756 117 7 c176 11 689 -1 808 -20
171 -26 312 -78 398 -146 42 -34 32 -37 117 33 63 51 148 99 265 148 55 24
102 44 104 46 12 10 -29 70 -83 122 -154 148 -368 244 -646 291 -121 20 -458
43 -570 38 -30 -1 -299 -3 -597 -4z"/>
<path d="M4580 2757 c-107 -37 -78 -197 36 -197 64 0 107 40 107 99 0 74 -70
122 -143 98z"/>
<path d="M9123 2750 c-33 -15 -44 -26 -52 -56 -19 -69 28 -134 97 -134 78 0
125 58 103 129 -19 66 -81 91 -148 61z"/>
<path d="M3683 2754 c-10 -4 -13 -104 -13 -450 l0 -444 83 -1 c196 -1 314 3
361 12 123 23 255 119 304 219 66 139 67 279 3 417 -54 115 -152 193 -286 228
-59 15 -427 31 -452 19z m407 -185 c55 -17 123 -78 151 -137 33 -66 32 -176 0
-249 -47 -106 -135 -153 -288 -153 l-83 0 0 273 c0 151 3 277 8 281 10 11 162
0 212 -15z"/>
<path d="M7013 2752 l-53 -3 0 -440 0 -439 168 0 c274 1 386 32 490 137 41 41
64 75 80 116 107 282 -24 549 -299 611 -62 14 -279 24 -386 18z m375 -192 c60
-27 88 -53 120 -115 22 -42 27 -63 27 -130 0 -121 -43 -197 -140 -248 -31 -16
-64 -22 -142 -25 l-103 -4 0 277 0 278 96 -6 c63 -4 111 -14 142 -27z"/>
<path d="M9947 2753 c-4 -3 -7 -206 -7 -450 l0 -443 88 0 87 0 4 441 c3 367 1
443 -10 450 -16 10 -153 12 -162 2z"/>
<path d="M4985 2467 c-62 -21 -97 -42 -137 -84 -131 -136 -107 -379 49 -482
63 -42 113 -55 203 -55 113 1 209 49 271 136 l20 27 -72 37 c-72 36 -73 36
-88 16 -64 -81 -202 -81 -251 0 -42 69 -45 67 198 70 l217 3 -2 58 c-4 114
-71 215 -172 260 -57 25 -179 32 -236 14z m159 -131 c34 -14 66 -50 66 -73 0
-10 -30 -13 -125 -13 -69 0 -125 4 -125 9 0 18 44 64 74 77 40 17 69 17 110 0z"/>
<path d="M5657 2469 c-61 -14 -112 -45 -156 -95 -54 -62 -75 -132 -69 -234 7
-119 57 -197 162 -253 63 -34 184 -31 254 5 l52 27 0 -42 c0 -148 -197 -191
-314 -68 l-29 30 -43 -31 c-24 -17 -53 -41 -64 -53 l-21 -23 31 -36 c79 -89
241 -127 391 -91 94 23 118 35 159 81 64 74 64 76 68 442 l3 332 -85 0 -86 0
0 -30 0 -30 -41 29 c-37 27 -116 52 -157 50 -9 -1 -34 -5 -55 -10z m183 -174
c62 -32 89 -139 50 -203 -41 -66 -136 -93 -200 -55 -64 37 -90 145 -51 209 35
58 136 83 201 49z"/>
<path d="M6401 2470 c-103 -22 -194 -91 -234 -179 -32 -68 -30 -197 3 -266 35
-73 105 -138 176 -164 81 -31 197 -31 279 0 78 28 164 113 188 184 71 208 -75
417 -301 430 -37 2 -87 0 -111 -5z m153 -174 c47 -20 79 -69 83 -130 6 -68
-19 -114 -78 -144 -95 -50 -208 5 -225 110 -8 49 0 80 33 119 47 56 119 73
187 45z"/>
<path d="M4530 2170 c0 -159 -1 -293 -2 -297 -2 -5 36 -9 83 -11 l86 -3 6 98
c4 54 7 189 7 301 l0 202 -90 0 -90 0 0 -290z"/>
<path d="M7957 2446 c-78 -22 -127 -63 -167 -140 -32 -64 -35 -76 -35 -160 0
-71 5 -101 21 -137 29 -63 74 -110 131 -139 89 -45 231 -27 282 34 20 24 31
19 31 -14 l0 -30 80 0 80 0 0 284 c0 319 6 296 -78 296 -72 0 -92 -8 -92 -38
l0 -25 -22 20 c-57 52 -150 71 -231 49z m196 -173 c40 -20 71 -93 63 -146 -24
-147 -208 -175 -267 -41 -27 60 -18 114 25 161 47 52 110 61 179 26z"/>
<path d="M9080 2160 l0 -300 90 0 90 0 0 300 0 300 -90 0 -90 0 0 -300z"/>
<path d="M8739 2436 c-42 -15 -99 -53 -99 -67 0 -5 -4 -9 -10 -9 -5 0 -10 16
-10 35 l0 35 -86 0 -87 0 4 -285 4 -285 87 0 86 0 4 185 c3 183 3 185 29 210
50 51 134 42 166 -17 16 -29 18 -55 15 -205 l-3 -173 92 0 91 0 -5 208 c-3
131 -9 221 -17 244 -22 62 -65 106 -122 123 -62 18 -91 18 -139 1z"/>
<path d="M9520 2441 c-94 -29 -165 -96 -200 -187 -18 -48 -21 -74 -18 -135 7
-120 59 -192 178 -248 47 -22 69 -26 145 -25 103 0 157 20 219 80 61 59 63 69
14 98 -79 46 -93 48 -119 19 -50 -52 -109 -66 -173 -39 -37 16 -76 60 -76 87
0 18 12 19 211 19 l212 0 -6 58 c-15 135 -74 221 -181 261 -58 21 -155 27
-206 12z m180 -151 c56 -52 45 -60 -90 -60 -66 0 -120 3 -120 8 0 19 49 64 83
76 50 17 91 9 127 -24z"/>
</g>
</svg>
